<svg viewBox="0 0 516 451" fill="none" xmlns="http://www.w3.org/2000/svg">
<g clip-path="url(#clip0_8220_28736)">
<g clip-path="url(#clip1_8220_28736)">
<path d="M279.409 67.4032C279.409 67.2689 279.275 67.0004 279.141 67.0004C277.664 66.7319 276.456 66.8662 275.784 67.5374C275.382 67.9402 275.113 68.4771 275.113 69.1484V72.5045C275.113 73.1757 275.247 73.7127 275.65 74.1154C276.187 74.6524 276.993 74.6524 277.664 74.6524H277.932H278.201C278.335 74.6524 278.604 74.5182 278.604 74.2497C278.604 74.1154 278.469 73.9812 278.335 73.9812L279.006 67.8059C279.141 67.6717 279.275 67.5374 279.409 67.4032Z" fill="url(#paint0_linear_8220_28736)"/>
<path d="M332.839 95.8631C332.704 95.7288 332.436 95.4603 332.302 95.1919C331.362 93.9837 324.515 87.0029 323.576 86.1975C322.502 85.1235 321.562 85.1235 320.488 85.1235H311.359C310.688 85.1235 309.748 85.2577 308.138 86.1975C306.661 87.0029 292.297 95.4604 290.82 96.4001C289.343 97.2055 285.853 97.6083 283.034 93.1782C282.631 92.6412 282.362 92.1042 281.96 91.433C279.006 87.0029 274.979 80.6934 270.683 78.9482H268.267H266.924H245.042C245.042 80.5592 244.908 82.4386 243.834 83.5126C243.163 84.1838 242.223 84.4523 241.015 84.4523C237.659 84.4523 237.659 86.0632 237.659 86.6002V86.8687C237.659 87.4057 237.659 88.3454 237.122 88.8824C236.585 89.4193 235.645 89.6878 234.303 89.6878H233.497C233.363 89.6878 233.229 89.6878 233.229 89.6878H233.095C231.752 89.6878 230.812 89.4193 230.275 88.8824C229.604 88.2111 229.738 87.4057 229.738 86.8687C229.738 86.7344 229.738 86.7344 229.738 86.6002C229.738 85.6605 229.336 84.5865 227.188 84.5865C227.188 85.1235 227.054 85.6605 227.054 86.3317V100.562C227.054 102.844 227.322 107.677 230.007 107.811H230.678V108.079C230.678 110.496 231.349 112.107 234.706 113.046C238.33 113.986 292.431 127.276 292.834 127.411C293.773 127.679 296.995 128.753 296.995 133.452V165.67V166.744V167.416H302.768C304.244 167.416 305.453 166.879 306.795 165.67C307.064 165.402 308.138 164.328 309.883 162.717C316.326 156.676 331.228 142.715 332.436 141.506C333.913 139.895 334.45 138.821 334.45 133.452V98.6822C334.047 97.2055 333.51 96.5343 332.839 95.8631Z" fill="url(#paint1_radial_8220_28736)"/>
<path d="M112.811 372.139C113.348 373.884 114.154 376.703 114.825 378.717C116.301 382.744 116.301 387.711 112.811 390.396C112.274 390.799 111.737 391.202 111.334 391.605C109.321 393.081 107.844 394.289 105.965 395.632C111.871 418.453 118.449 443.96 118.852 445.705C119.658 448.793 120.732 450.404 124.088 450.404H143.419H143.687H156.172H158.857C159.931 450.404 160.334 450.135 160.334 447.853V437.919C160.334 435.905 159.663 434.697 156.038 434.697H139.526C134.29 434.697 133.216 432.146 131.605 426.911C130.666 423.958 126.101 404.492 117.912 369.051C117.51 367.44 117.241 366.366 117.241 366.098C116.838 364.621 116.436 362.339 117.778 360.46C111.737 364.89 111.737 368.649 112.811 372.139Z" fill="url(#paint2_linear_8220_28736)"/>
<path d="M174.43 376.838C175.235 378.583 176.577 381.133 177.517 382.879C179.531 386.637 180.605 391.47 177.651 394.826C177.249 395.363 176.846 395.766 176.443 396.169C174.698 398.048 173.356 399.525 171.61 401.136C181.813 421.004 193.09 442.886 194.298 445.034C195.774 447.585 197.654 450.001 201.279 450.001H216.448H216.717H228.799H229.067H231.752C232.826 450.001 233.229 449.733 233.229 447.45V437.516C233.229 435.503 232.558 434.294 228.933 434.294H212.421C207.454 434.294 205.44 430.267 203.292 425.971C203.158 425.569 202.889 425.3 202.755 424.897C199.668 418.991 177.517 372.945 176.98 370.797L176.846 370.528C176.443 368.783 176.04 366.501 177.383 364.084C172.013 369.991 172.819 373.481 174.43 376.838Z" fill="url(#paint3_linear_8220_28736)"/>
<path d="M296.056 64.4497C296.19 64.4497 303.573 63.6443 303.707 63.6443C311.359 62.8388 318.743 62.1676 322.368 61.7649C321.831 60.8251 302.231 24.042 300.351 20.2832C299.814 19.2092 298.74 18.538 297.801 18.8065C296.727 19.075 296.19 20.2832 296.19 21.8941V26.7269C296.19 28.4721 296.056 61.8991 296.056 64.4497Z" fill="url(#paint4_linear_8220_28736)"/>
<path d="M299.412 31.4255C298.74 28.0694 296.861 25.9215 295.921 25.3845V63.1073C298.338 62.8388 300.754 62.7046 303.17 62.4361C303.036 60.0197 299.948 33.8419 299.412 31.4255Z" fill="url(#paint5_linear_8220_28736)"/>
<path d="M416.473 434.429H404.794C399.961 434.429 397.679 429.73 393.92 421.81C393.651 421.138 393.249 420.333 392.846 419.662C390.564 414.963 383.986 399.659 383.449 397.377C383.449 397.377 382.375 395.095 381.704 386.906C381.435 384.221 380.495 374.824 379.287 364.084H377.542C370.561 363.816 369.219 369.857 369.219 379.388V391.47C369.219 396.303 367.339 398.988 363.581 399.122C363.849 400.062 364.118 400.867 364.118 400.867C364.52 402.076 367.205 409.862 370.293 418.722C374.32 430.401 378.884 443.557 379.287 445.303C380.093 448.39 381.167 450.001 384.523 450.001H403.854H404.123H416.205H416.473H419.158C420.232 450.001 420.635 449.733 420.635 447.45V437.516C420.769 435.637 419.963 434.429 416.473 434.429Z" fill="url(#paint6_linear_8220_28736)"/>
<path d="M125.162 209.166C125.43 208.629 123.551 206.615 123.148 206.212C122.208 205.004 121.403 203.662 120.732 202.319C119.255 199.634 118.047 196.949 117.241 193.996C115.362 187.687 115.228 180.974 116.839 174.665C118.986 166.207 124.356 158.555 131.471 152.917C132.411 152.112 134.827 150.098 136.17 151.575C136.438 151.843 136.438 152.112 136.304 152.38C131.605 160.166 129.592 169.295 130.934 178.289C131.874 185.002 134.156 191.177 138.72 196.547C138.855 196.815 144.09 193.862 144.627 193.593C147.178 192.385 149.728 191.311 152.413 190.506C157.649 188.76 163.153 187.552 168.791 187.15C172.684 186.881 176.577 186.478 180.471 186.21C185.84 185.807 191.21 185.27 196.58 184.867C203.024 184.33 209.602 183.793 216.045 183.256C222.892 182.719 229.873 182.048 236.719 181.511C243.431 180.974 250.009 180.437 256.722 179.766C262.494 179.229 268.133 178.826 273.905 178.289C278.067 177.887 282.094 177.618 286.256 177.215C288.001 177.081 289.88 176.947 291.625 176.813H291.76C294.31 176.544 296.861 175.873 296.861 172.248V167.416H302.499C303.976 167.416 305.184 166.879 306.392 165.805C306.661 165.536 307.735 164.596 309.346 162.985C315.789 156.944 330.825 142.849 332.033 141.641C333.51 140.164 334.047 139.09 334.047 133.72V98.9507C334.047 97.3397 333.51 96.8027 332.839 95.9973C332.704 95.863 332.436 95.5945 332.302 95.326C331.362 94.1178 324.515 87.2713 323.576 86.3316C322.502 85.3919 321.562 85.2577 320.622 85.2577H311.494C310.957 85.2577 310.017 85.3919 308.406 86.3316C307.064 87.1371 292.565 95.5945 291.088 96.5342C289.612 97.3397 285.987 97.7424 283.034 93.3124C282.631 92.7754 282.362 92.2384 281.825 91.5672C278.872 87.0029 274.576 80.5591 270.28 78.9482H273.234C274.845 78.9482 275.919 78.6797 276.456 78.0084C277.261 77.203 277.127 76.129 277.127 75.4578V75.1893C277.127 75.0551 277.127 74.7866 277.127 74.5181C277.127 74.1153 277.127 73.7126 276.993 73.1756C276.858 70.3565 277.127 67.9401 278.604 66.3291C278.738 66.1949 278.738 66.0607 278.872 66.0607L279.006 65.9264C279.275 65.6579 279.543 65.5237 279.812 65.3894H279.946C280.483 65.1209 281.288 64.8525 282.094 64.7182C288.403 64.1812 321.562 60.8251 324.247 60.5566H324.515C324.515 49.1458 324.65 21.7598 324.65 21.7598C324.65 19.7462 325.724 18.1352 327.2 17.7325C328.408 17.3298 329.751 18.001 330.825 19.4777C332.436 21.7598 338.745 35.8556 349.888 61.3621C350.29 62.3018 350.559 62.973 350.693 63.2415C352.17 66.5976 353.647 68.4771 351.499 71.0277C355.257 74.2496 360.762 81.9016 361.701 86.6001L362.104 88.748C366.534 108.885 378.482 225.812 378.616 227.691C379.422 234.538 380.227 243.264 380.361 250.513C380.361 250.513 380.63 255.614 380.227 261.521C379.69 268.77 373.246 273.738 369.085 276.288C366.4 277.899 344.518 290.518 327.603 299.781C326.261 300.452 325.052 301.123 323.978 301.795C323.441 302.063 322.904 302.332 322.367 302.734C315.118 306.628 309.48 309.447 307.869 309.849C304.379 310.521 301.157 310.789 298.606 310.789C297.666 321.26 294.981 347.975 293.236 369.051C292.968 367.977 292.565 367.038 291.894 366.366C290.954 365.293 289.612 364.756 288.269 364.756C279.275 364.756 278.872 376.301 278.872 378.583C278.872 381.268 278.738 386.1 278.469 390.531C278.201 395.095 276.858 399.793 269.072 399.793V305.151C269.072 305.151 190.942 287.028 185.169 285.417C183.021 284.88 181.545 284.88 180.605 285.283C179.262 285.954 178.054 287.296 177.651 288.773C176.577 293.203 172.55 309.312 171.208 314.951C169.731 320.723 167.852 322.334 165.301 324.348C163.153 325.959 124.222 356.03 120.329 358.714C119.926 358.983 119.658 359.251 119.255 359.52C112.274 364.756 111.737 368.112 112.945 372.81C113.482 374.555 114.288 377.375 114.959 379.388C116.302 383.281 116.167 388.383 112.945 390.933C112.408 391.336 111.871 391.739 111.469 392.142C109.589 393.618 107.978 394.826 106.099 396.035C101.266 377.375 96.836 360.325 96.5675 359.117C95.6278 355.627 96.0305 353.613 97.91 352.673C107.844 347.706 113.348 338.846 113.348 327.704V249.708C113.348 242.727 114.288 236.015 116.033 229.839C117.912 222.859 120.732 216.415 125.027 210.508" fill="url(#paint7_linear_8220_28736)"/>
<path d="M125.162 209.166C125.43 208.629 123.551 206.615 123.148 206.212C122.208 205.004 121.403 203.662 120.732 202.319C119.255 199.634 118.047 196.949 117.241 193.996C115.362 187.687 115.228 180.974 116.839 174.665C118.986 166.207 124.356 158.555 131.471 152.917C132.411 152.112 134.827 150.098 136.17 151.575C136.438 151.843 136.438 152.112 136.304 152.38C131.605 160.166 129.592 169.295 130.934 178.289C131.874 185.002 134.156 191.177 138.72 196.547C138.855 196.815 144.09 193.862 144.627 193.593C147.178 192.385 149.728 191.311 152.413 190.506C157.649 188.76 163.153 187.552 168.791 187.15C172.684 186.881 176.577 186.478 180.471 186.21C185.84 185.807 191.21 185.27 196.58 184.867C203.024 184.33 209.602 183.793 216.045 183.256C222.892 182.719 229.873 182.048 236.719 181.511C243.431 180.974 250.009 180.437 256.722 179.766C262.494 179.229 268.133 178.826 273.905 178.289C278.067 177.887 282.094 177.618 286.256 177.215C288.001 177.081 289.88 176.947 291.625 176.813H291.76C294.31 176.544 296.861 175.873 296.861 172.248V167.416H302.499C303.976 167.416 305.184 166.879 306.392 165.805C306.661 165.536 307.735 164.596 309.346 162.985C315.789 156.944 330.825 142.849 332.033 141.641C333.51 140.164 334.047 139.09 334.047 133.72V98.9507C334.047 97.3397 333.51 96.8027 332.839 95.9973C332.704 95.863 332.436 95.5945 332.302 95.326C331.362 94.1178 324.515 87.2713 323.576 86.3316C322.502 85.3919 321.562 85.2577 320.622 85.2577H311.494C310.957 85.2577 310.017 85.3919 308.406 86.3316C307.064 87.1371 292.565 95.5945 291.088 96.5342C289.612 97.3397 285.987 97.7424 283.034 93.3124C282.631 92.7754 282.362 92.2384 281.825 91.5672C278.872 87.0029 274.576 80.5591 270.28 78.9482H273.234C274.845 78.9482 275.919 78.6797 276.456 78.0084C277.261 77.203 277.127 76.129 277.127 75.4578V75.1893C277.127 75.0551 277.127 74.7866 277.127 74.5181C277.127 74.1153 277.127 73.7126 276.993 73.1756C276.858 70.3565 277.127 67.9401 278.604 66.3291C278.738 66.1949 278.738 66.0607 278.872 66.0607L279.006 65.9264C279.275 65.6579 279.543 65.5237 279.812 65.3894H279.946C280.483 65.1209 281.288 64.8525 282.094 64.7182C288.403 64.1812 321.562 60.8251 324.247 60.5566H324.515C324.515 49.1458 324.65 21.7598 324.65 21.7598C324.65 19.7462 325.724 18.1352 327.2 17.7325C328.408 17.3298 329.751 18.001 330.825 19.4777C332.436 21.7598 338.745 35.8556 349.888 61.3621C350.29 62.3018 350.559 62.973 350.693 63.2415C352.17 66.5976 353.647 68.4771 351.499 71.0277C355.257 74.2496 360.762 81.9016 361.701 86.6001L362.104 88.748C366.534 108.885 378.482 225.812 378.616 227.691C379.422 234.538 380.227 243.264 380.361 250.513C380.361 250.513 380.63 255.614 380.227 261.521C379.69 268.77 373.246 273.738 369.085 276.288C366.4 277.899 344.518 290.518 327.603 299.781C326.261 300.452 325.052 301.123 323.978 301.795C323.441 302.063 322.904 302.332 322.367 302.734C315.118 306.628 309.48 309.447 307.869 309.849C304.379 310.521 301.157 310.789 298.606 310.789C297.666 321.26 294.981 347.975 293.236 369.051C292.968 367.977 292.565 367.038 291.894 366.366C290.954 365.293 289.612 364.756 288.269 364.756C279.275 364.756 278.872 376.301 278.872 378.583C278.872 381.268 278.738 386.1 278.469 390.531C278.201 395.095 276.858 399.793 269.072 399.793V305.151C269.072 305.151 190.942 287.028 185.169 285.417C183.021 284.88 181.545 284.88 180.605 285.283C179.262 285.954 178.054 287.296 177.651 288.773C176.577 293.203 172.55 309.312 171.208 314.951C169.731 320.723 167.852 322.334 165.301 324.348C163.153 325.959 124.222 356.03 120.329 358.714C119.926 358.983 119.658 359.251 119.255 359.52C112.274 364.756 111.737 368.112 112.945 372.81C113.482 374.555 114.288 377.375 114.959 379.388C116.302 383.281 116.167 388.383 112.945 390.933C112.408 391.336 111.871 391.739 111.469 392.142C109.589 393.618 107.978 394.826 106.099 396.035C101.266 377.375 96.836 360.325 96.5675 359.117C95.6278 355.627 96.0305 353.613 97.91 352.673C107.844 347.706 113.348 338.846 113.348 327.704V249.708C113.348 242.727 114.288 236.015 116.033 229.839C117.912 222.859 120.732 216.415 125.027 210.508" fill="url(#paint8_linear_8220_28736)"/>
<path d="M125.162 209.166C125.43 208.629 123.551 206.615 123.148 206.212C122.208 205.004 121.403 203.662 120.732 202.319C119.255 199.634 118.047 196.949 117.241 193.996C115.362 187.687 115.228 180.974 116.839 174.665C118.986 166.207 124.356 158.555 131.471 152.917C132.411 152.112 134.827 150.098 136.17 151.575C136.438 151.843 136.438 152.112 136.304 152.38C131.605 160.166 129.592 169.295 130.934 178.289C131.874 185.002 134.156 191.177 138.72 196.547C138.855 196.815 144.09 193.862 144.627 193.593C147.178 192.385 149.728 191.311 152.413 190.506C157.649 188.76 163.153 187.552 168.791 187.15C172.684 186.881 176.577 186.478 180.471 186.21C185.84 185.807 191.21 185.27 196.58 184.867C203.024 184.33 209.602 183.793 216.045 183.256C222.892 182.719 229.873 182.048 236.719 181.511C243.431 180.974 250.009 180.437 256.722 179.766C262.494 179.229 268.133 178.826 273.905 178.289C278.067 177.887 282.094 177.618 286.256 177.215C288.001 177.081 289.88 176.947 291.625 176.813H291.76C294.31 176.544 296.861 175.873 296.861 172.248V167.416H302.499C303.976 167.416 305.184 166.879 306.392 165.805C306.661 165.536 307.735 164.596 309.346 162.985C315.789 156.944 330.825 142.849 332.033 141.641C333.51 140.164 334.047 139.09 334.047 133.72V98.9507C334.047 97.3397 333.51 96.8027 332.839 95.9973C332.704 95.863 332.436 95.5945 332.302 95.326C331.362 94.1178 324.515 87.2713 323.576 86.3316C322.502 85.3919 321.562 85.2577 320.622 85.2577H311.494C310.957 85.2577 310.017 85.3919 308.406 86.3316C307.064 87.1371 292.565 95.5945 291.088 96.5342C289.612 97.3397 285.987 97.7424 283.034 93.3124C282.631 92.7754 282.362 92.2384 281.825 91.5672C278.872 87.0029 274.576 80.5591 270.28 78.9482H273.234C274.845 78.9482 275.919 78.6797 276.456 78.0084C277.261 77.203 277.127 76.129 277.127 75.4578V75.1893C277.127 75.0551 277.127 74.7866 277.127 74.5181C277.127 74.1153 277.127 73.7126 276.993 73.1756C276.858 70.3565 277.127 67.9401 278.604 66.3291C278.738 66.1949 278.738 66.0607 278.872 66.0607L279.006 65.9264C279.275 65.6579 279.543 65.5237 279.812 65.3894H279.946C280.483 65.1209 281.288 64.8525 282.094 64.7182C288.403 64.1812 321.562 60.8251 324.247 60.5566H324.515C324.515 49.1458 324.65 21.7598 324.65 21.7598C324.65 19.7462 325.724 18.1352 327.2 17.7325C328.408 17.3298 329.751 18.001 330.825 19.4777C332.436 21.7598 338.745 35.8556 349.888 61.3621C350.29 62.3018 350.559 62.973 350.693 63.2415C352.17 66.5976 353.647 68.4771 351.499 71.0277C355.257 74.2496 360.762 81.9016 361.701 86.6001L362.104 88.748C366.534 108.885 378.482 225.812 378.616 227.691C379.422 234.538 380.227 243.264 380.361 250.513C380.361 250.513 380.63 255.614 380.227 261.521C379.69 268.77 373.246 273.738 369.085 276.288C366.4 277.899 344.518 290.518 327.603 299.781C326.261 300.452 325.052 301.123 323.978 301.795C323.441 302.063 322.904 302.332 322.367 302.734C315.118 306.628 309.48 309.447 307.869 309.849C304.379 310.521 301.157 310.789 298.606 310.789C297.666 321.26 294.981 347.975 293.236 369.051C292.968 367.977 292.565 367.038 291.894 366.366C290.954 365.293 289.612 364.756 288.269 364.756C279.275 364.756 278.872 376.301 278.872 378.583C278.872 381.268 278.738 386.1 278.469 390.531C278.201 395.095 276.858 399.793 269.072 399.793V305.151C269.072 305.151 190.942 287.028 185.169 285.417C183.021 284.88 181.545 284.88 180.605 285.283C179.262 285.954 178.054 287.296 177.651 288.773C176.577 293.203 172.55 309.312 171.208 314.951C169.731 320.723 167.852 322.334 165.301 324.348C163.153 325.959 124.222 356.03 120.329 358.714C119.926 358.983 119.658 359.251 119.255 359.52C112.274 364.756 111.737 368.112 112.945 372.81C113.482 374.555 114.288 377.375 114.959 379.388C116.302 383.281 116.167 388.383 112.945 390.933C112.408 391.336 111.871 391.739 111.469 392.142C109.589 393.618 107.978 394.826 106.099 396.035C101.266 377.375 96.836 360.325 96.5675 359.117C95.6278 355.627 96.0305 353.613 97.91 352.673C107.844 347.706 113.348 338.846 113.348 327.704V249.708C113.348 242.727 114.288 236.015 116.033 229.839C117.912 222.859 120.732 216.415 125.027 210.508" fill="url(#paint9_linear_8220_28736)"/>
<path d="M185.035 285.014C182.887 284.477 181.41 284.477 180.471 284.88C179.128 285.551 177.92 286.894 177.517 288.37C174.832 299.244 172.013 310.655 171.208 314.011C171.208 314.28 171.073 314.414 171.073 314.548C169.597 320.321 167.717 321.931 165.167 323.945C165.167 323.945 165.032 324.079 164.898 324.079V342.337C164.898 350.794 160.468 355.493 155.904 360.594C154.159 362.473 153.756 364.353 154.427 367.038C154.696 368.112 162.75 384.087 171.61 401.27C173.356 399.659 174.698 398.183 176.443 396.303C176.846 395.9 177.249 395.363 177.651 394.961C180.471 391.873 179.799 386.906 177.786 383.281C176.846 381.536 175.504 378.851 174.698 377.24C172.55 372.81 172.684 369.454 178.591 363.145C178.725 363.01 178.725 362.876 178.86 362.742C179.128 362.473 206.917 330.792 208.93 328.509C210.944 326.227 211.884 323.811 212.689 318.71C213.092 315.89 214.972 303.271 216.582 292.666C200.876 288.773 187.317 285.551 185.035 285.014Z" fill="url(#paint10_linear_8220_28736)"/>
<path d="M378.616 266.488C378.616 266.623 378.616 266.623 378.616 266.488C378.482 266.623 378.482 266.757 378.348 266.891C378.482 266.757 378.482 266.623 378.616 266.488Z" fill="url(#paint11_linear_8220_28736)"/>
<path d="M372.709 297.365C372.307 284.746 375.26 272.798 378.213 267.294C375.931 271.187 372.038 274.006 369.219 275.751C367.205 276.959 353.647 284.88 339.819 292.532C341.296 293.874 343.31 296.693 343.578 298.304C343.981 300.587 348.545 324.079 351.364 337.907C355.794 360.191 361.299 387.846 362.104 391.873C362.775 395.363 363.312 397.646 363.715 399.122C367.34 399.122 369.487 396.303 369.487 391.605V379.523C369.487 371.334 370.159 364.084 377.676 364.084H379.422C377.945 351.063 376.334 335.222 375.126 324.616C374.32 318.038 372.709 300.05 372.709 297.365Z" fill="url(#paint12_linear_8220_28736)"/>
<path d="M299.949 434.026H296.19C295.787 430.938 291.625 399.391 291.223 395.498C291.088 394.021 291.894 383.818 292.968 370.662C293.505 366.904 292.834 367.172 291.76 365.83C290.82 364.621 289.343 364.219 288.135 364.219C279.409 364.219 278.738 374.958 278.738 378.046C278.738 380.731 278.604 385.295 278.335 389.725C278.067 394.155 277.127 399.257 268.938 399.257V444.9C268.938 449.598 271.891 450.135 274.979 450.135H287.33H298.606H303.573C305.184 450.135 305.184 449.733 305.184 447.182V438.322C305.184 435.234 303.573 434.026 299.949 434.026Z" fill="url(#paint13_linear_8220_28736)"/>
<path d="M302.499 67.6716C302.365 67.4032 302.096 66.8662 301.022 66.8662H292.162H291.894C291.223 66.8662 290.417 66.8662 290.014 67.4032C289.612 67.8059 289.477 68.3429 289.477 69.0141V72.3702C289.477 73.1757 289.746 73.8469 290.149 74.2496C290.551 74.6524 291.088 74.7866 291.894 74.7866C292.162 74.7866 292.565 74.7866 292.968 74.6524C295.921 74.1154 300.217 71.0278 301.828 69.6853C302.499 68.8799 302.768 68.2086 302.499 67.6716Z" fill="#FE5ACD"/>
<path d="M346.397 63.9128L346.263 63.7785C345.592 61.7649 332.704 30.2173 331.496 26.9954C331.093 25.7872 330.154 25.116 329.214 25.2503C328.543 25.3845 327.603 26.19 327.603 27.9352V66.8662C327.603 68.0744 328.274 68.7456 329.08 69.0141C329.885 69.2826 330.691 69.0141 331.228 68.2086C331.496 67.8059 331.765 67.2689 332.033 66.7319C332.436 65.7922 332.839 64.8525 333.51 64.8525H335.523C336.195 64.8525 336.463 65.2552 336.463 65.658V69.0141C336.329 70.3565 336.06 70.7593 335.389 71.4305C335.255 71.699 334.987 71.8332 334.718 72.1017C333.51 73.5784 333.376 73.9811 333.376 75.0551V79.3509C333.376 80.9619 333.644 81.9016 334.181 82.0358H334.45C334.718 82.0358 334.986 81.9016 335.121 81.6331C335.389 81.2304 337.403 78.814 339.685 75.9948C341.162 74.1154 342.773 72.1017 343.847 70.7593C346.397 67.6716 347.069 65.7922 346.397 63.9128Z" fill="url(#paint14_linear_8220_28736)"/>
<path d="M242.76 109.959C240.881 109.69 239.538 109.422 239.136 109.288C233.497 107.945 233.497 106.334 233.497 101.233V89.822C233.497 89.6878 233.363 89.5535 233.229 89.5535C233.095 89.5535 232.96 89.6878 232.96 89.822V101.233V102.978V104.32C232.96 105.797 232.692 106.603 232.155 107.14C231.752 107.542 231.081 107.677 230.276 107.811V108.482C231.215 108.482 232.021 108.214 232.558 107.677C232.826 107.408 233.095 107.005 233.229 106.468C233.229 106.334 233.229 106.334 233.229 106.2C233.9 107.945 235.377 109.019 239.001 109.825C239.404 109.959 240.747 110.093 242.626 110.496C253.634 112.509 253.634 111.838 242.76 109.959Z" fill="#1F2252"/>
<path d="M245.177 78.8139H232.558C228.664 78.8139 227.054 80.0221 226.785 84.5865H227.188C228.933 84.5865 229.336 85.6604 229.336 86.4659V86.7344C229.336 87.2714 229.336 88.2111 230.007 88.8823C230.544 89.5535 231.618 89.822 232.96 89.822H234.303C235.779 89.822 236.719 89.5535 237.256 88.8823C237.927 88.2111 237.927 87.2714 237.927 86.7344V86.4659C237.927 85.9289 237.927 84.4522 241.149 84.4522C242.357 84.4522 243.297 84.0495 244.103 83.3783C245.177 82.3043 245.311 80.5591 245.311 78.8139H245.177Z" fill="black"/>
<path d="M298.606 80.9619C298.203 80.8276 296.324 80.0221 294.31 79.0824C294.713 80.5591 294.847 82.5728 294.31 84.4522C296.19 83.6468 298.203 82.8413 298.875 82.5728C299.277 82.4385 299.412 82.1701 299.412 81.9016C299.412 81.6331 299.009 81.2303 298.606 80.9619Z" fill="white"/>
<path d="M288.806 76.666C288.954 76.666 289.075 76.5458 289.075 76.3975C289.075 76.2492 288.954 76.129 288.806 76.129C288.658 76.129 288.538 76.2492 288.538 76.3975C288.538 76.5458 288.658 76.666 288.806 76.666Z" fill="#1F2252"/>
<path d="M290.551 86.8687C290.774 86.8687 290.954 86.6884 290.954 86.4659C290.954 86.2435 290.774 86.0632 290.551 86.0632C290.329 86.0632 290.149 86.2435 290.149 86.4659C290.149 86.6884 290.329 86.8687 290.551 86.8687Z" fill="#1F2252"/>
<path d="M156.441 450.135V437.114C156.441 436.979 156.307 436.845 156.172 436.845C156.038 436.845 155.904 436.979 155.904 437.114V450.135H156.441Z" fill="#D54570"/>
<path d="M143.285 442.349V450.135V450.27H143.956C143.956 450.27 143.956 450.27 143.956 450.135V442.349C143.956 439.53 142.479 437.919 139.929 437.919H131.605C131.471 437.919 131.337 438.053 131.337 438.188C131.337 438.322 131.471 438.456 131.605 438.456H139.929C142.077 438.456 143.285 439.933 143.285 442.349Z" fill="#D54570"/>
<path d="M229.604 450.135V437.114C229.604 436.979 229.47 436.845 229.336 436.845C229.202 436.845 229.067 436.979 229.067 437.114V450.135H229.604Z" fill="#D54570"/>
<path d="M216.448 442.349V450.135V450.27H217.119C217.119 450.27 217.119 450.27 217.119 450.135V442.349C217.119 439.53 215.643 437.919 213.092 437.919H204.769C204.635 437.919 204.5 438.053 204.5 438.188C204.5 438.322 204.635 438.456 204.769 438.456H213.092C215.24 438.456 216.448 439.933 216.448 442.349Z" fill="#D54570"/>
<path d="M299.412 450.135V437.114C299.412 436.979 299.277 436.845 299.143 436.845C299.009 436.845 298.875 436.979 298.875 437.114V450.135H299.412Z" fill="#D54570"/>
<path d="M288.001 450.135V437.114C288.001 436.979 287.866 436.845 287.732 436.845C287.598 436.845 287.464 436.979 287.464 437.114V450.135H288.001Z" fill="#D54570"/>
<path d="M296.19 433.355H283.436C283.302 433.355 283.168 433.489 283.168 433.623C283.168 433.757 283.302 433.892 283.436 433.892H296.19V433.355Z" fill="#D54570"/>
<path d="M403.854 442.349V450.135V450.27H404.525C404.525 450.27 404.525 450.27 404.525 450.135V442.349C404.525 439.53 403.049 437.919 400.498 437.919H392.175C392.04 437.919 391.906 438.053 391.906 438.188C391.906 438.322 392.04 438.456 392.175 438.456H400.498C402.512 438.456 403.854 439.933 403.854 442.349Z" fill="#D54570"/>
<path d="M416.876 450.135V437.114C416.876 436.979 416.741 436.845 416.607 436.845C416.473 436.845 416.339 436.979 416.339 437.114V450.135H416.876Z" fill="#D54570"/>
<path d="M286.524 115.194C286.524 115.194 284.779 117.074 278.335 116C272.026 114.792 255.379 112.375 247.593 111.033" stroke="#1F2252" stroke-width="0.671224" stroke-miterlimit="10" stroke-linecap="round"/>
<path d="M298.875 80.4249C298.472 80.2906 296.19 79.2167 293.773 78.277C291.357 77.203 288.94 76.129 288.94 76.129L288.672 76.8003C288.672 76.8003 289.746 77.3372 291.223 77.8742C290.82 79.7536 290.82 83.1098 291.894 85.5262L290.417 86.1974L290.686 86.8686L299.009 83.3783C299.68 83.1098 299.949 82.707 299.949 82.0358C300.083 81.3646 299.546 80.6934 298.875 80.4249ZM293.371 78.8139C293.908 80.2906 294.176 82.707 293.371 84.855C294.31 82.5728 294.042 80.2906 293.371 78.8139ZM293.371 78.8139C292.834 78.5455 292.297 78.4112 291.894 78.1427C292.431 78.277 292.834 78.5455 293.371 78.8139ZM291.625 79.7537C291.491 81.4988 291.76 83.6468 292.565 85.2577C291.76 83.6468 291.625 81.4988 291.625 79.7537ZM298.74 82.5728L294.176 84.4522C294.713 82.5728 294.579 80.5591 294.176 79.0824C296.19 80.0221 298.203 80.8276 298.472 80.9619C299.009 81.2303 299.277 81.4988 299.277 81.9016C299.412 82.1701 299.143 82.4385 298.74 82.5728Z" fill="#1F2252"/>
</g>
</g>
<defs>
<linearGradient id="paint0_linear_8220_28736" x1="275.083" y1="70.7193" x2="279.366" y2="70.7193" gradientUnits="userSpaceOnUse">
<stop stop-color="#FF8DA8"/>
<stop offset="0.0806854" stop-color="#FF8CA2"/>
<stop offset="0.6867" stop-color="#FF827A"/>
<stop offset="1" stop-color="#FF7E6A"/>
</linearGradient>
<radialGradient id="paint1_radial_8220_28736" cx="0" cy="0" r="1" gradientUnits="userSpaceOnUse" gradientTransform="translate(348.151 138.435) rotate(23.5529) scale(143.088 199.074)">
<stop stop-color="#FF7E6A"/>
<stop offset="0.112" stop-color="#FF8071"/>
<stop offset="0.2704" stop-color="#FF8483"/>
<stop offset="0.4555" stop-color="#FF8BA1"/>
<stop offset="0.4915" stop-color="#FF8DA8"/>
<stop offset="0.6582" stop-color="#FFAFA0"/>
<stop offset="0.8834" stop-color="#FFD796"/>
<stop offset="1" stop-color="#FFE792"/>
</radialGradient>
<linearGradient id="paint2_linear_8220_28736" x1="133.101" y1="360.149" x2="133.101" y2="450.197" gradientUnits="userSpaceOnUse">
<stop offset="3.92e-09" stop-color="#FF7D7F"/>
<stop offset="0.1854" stop-color="#FF8581"/>
<stop offset="0.4751" stop-color="#FF9B86"/>
<stop offset="0.831" stop-color="#FFBF8F"/>
<stop offset="1" stop-color="#FFD394"/>
</linearGradient>
<linearGradient id="paint3_linear_8220_28736" x1="202.485" y1="364.089" x2="202.485" y2="450.197" gradientUnits="userSpaceOnUse">
<stop offset="0.2771" stop-color="#E7476F"/>
<stop offset="0.4388" stop-color="#EE6383"/>
<stop offset="0.6786" stop-color="#F7879D"/>
<stop offset="0.8743" stop-color="#FD9DAC"/>
<stop offset="1" stop-color="#FFA5B2"/>
</linearGradient>
<linearGradient id="paint4_linear_8220_28736" x1="298.525" y1="40.1114" x2="312.943" y2="71.2117" gradientUnits="userSpaceOnUse">
<stop offset="0.1515" stop-color="#6755AC"/>
<stop offset="0.2874" stop-color="#574C92"/>
<stop offset="0.4842" stop-color="#444173"/>
<stop offset="0.6509" stop-color="#383A60"/>
<stop offset="0.7664" stop-color="#343859"/>
</linearGradient>
<linearGradient id="paint5_linear_8220_28736" x1="299.68" y1="63.0978" x2="299.68" y2="25.3296" gradientUnits="userSpaceOnUse">
<stop stop-color="#FF7E6A"/>
<stop offset="0.112" stop-color="#FF8071"/>
<stop offset="0.2704" stop-color="#FF8483"/>
<stop offset="0.4555" stop-color="#FF8BA1"/>
<stop offset="0.4915" stop-color="#FF8DA8"/>
<stop offset="0.6582" stop-color="#FFAFA0"/>
<stop offset="0.8834" stop-color="#FFD796"/>
<stop offset="1" stop-color="#FFE792"/>
</linearGradient>
<linearGradient id="paint6_linear_8220_28736" x1="392.18" y1="364.125" x2="392.18" y2="450.197" gradientUnits="userSpaceOnUse">
<stop offset="0.2771" stop-color="#E7476F"/>
<stop offset="0.4388" stop-color="#EE6383"/>
<stop offset="0.6786" stop-color="#F7879D"/>
<stop offset="0.8743" stop-color="#FD9DAC"/>
<stop offset="1" stop-color="#FFA5B2"/>
</linearGradient>
<linearGradient id="paint7_linear_8220_28736" x1="238.171" y1="18.4077" x2="238.171" y2="399.908" gradientUnits="userSpaceOnUse">
<stop offset="0.1468" stop-color="#5C6089"/>
<stop offset="1" stop-color="#343859"/>
</linearGradient>
<linearGradient id="paint8_linear_8220_28736" x1="380.449" y1="190.506" x2="345.323" y2="190.506" gradientUnits="userSpaceOnUse">
<stop offset="0.1468" stop-color="#5823BA" stop-opacity="0.57"/>
<stop offset="1" stop-color="#705D9B" stop-opacity="0"/>
</linearGradient>
<linearGradient id="paint9_linear_8220_28736" x1="150.668" y1="100.964" x2="262.091" y2="271.455" gradientUnits="userSpaceOnUse">
<stop offset="0.1468" stop-color="#8353E3" stop-opacity="0.88"/>
<stop offset="1" stop-color="#705D9B" stop-opacity="0"/>
</linearGradient>
<linearGradient id="paint10_linear_8220_28736" x1="185.315" y1="284.529" x2="185.315" y2="401.296" gradientUnits="userSpaceOnUse">
<stop offset="0.3884" stop-color="#20224D"/>
<stop offset="0.4858" stop-color="#222251"/>
<stop offset="0.5784" stop-color="#28225C"/>
<stop offset="0.6689" stop-color="#32226F"/>
<stop offset="0.7583" stop-color="#40238A"/>
<stop offset="0.8459" stop-color="#5123AD"/>
<stop offset="0.8755" stop-color="#5823BA"/>
</linearGradient>
<linearGradient id="paint11_linear_8220_28736" x1="378.511" y1="266.555" x2="378.511" y2="266.937" gradientUnits="userSpaceOnUse">
<stop offset="0.3884" stop-color="#20224D"/>
<stop offset="0.4858" stop-color="#222251"/>
<stop offset="0.5784" stop-color="#28225C"/>
<stop offset="0.6689" stop-color="#32226F"/>
<stop offset="0.7583" stop-color="#40238A"/>
<stop offset="0.8459" stop-color="#5123AD"/>
<stop offset="0.8755" stop-color="#5823BA"/>
</linearGradient>
<linearGradient id="paint12_linear_8220_28736" x1="359.539" y1="267.336" x2="359.539" y2="399.291" gradientUnits="userSpaceOnUse">
<stop offset="0.3884" stop-color="#20224D"/>
<stop offset="0.4858" stop-color="#222251"/>
<stop offset="0.5784" stop-color="#28225C"/>
<stop offset="0.6689" stop-color="#32226F"/>
<stop offset="0.7583" stop-color="#40238A"/>
<stop offset="0.8459" stop-color="#5123AD"/>
<stop offset="0.8755" stop-color="#5823BA"/>
</linearGradient>
<linearGradient id="paint13_linear_8220_28736" x1="287.065" y1="364.139" x2="287.065" y2="450.197" gradientUnits="userSpaceOnUse">
<stop offset="3.92e-09" stop-color="#FF7D7F"/>
<stop offset="0.1854" stop-color="#FF8581"/>
<stop offset="0.4751" stop-color="#FF9B86"/>
<stop offset="0.831" stop-color="#FFBF8F"/>
<stop offset="1" stop-color="#FFD394"/>
</linearGradient>
<linearGradient id="paint14_linear_8220_28736" x1="337.103" y1="82.0093" x2="337.103" y2="25.1484" gradientUnits="userSpaceOnUse">
<stop stop-color="#FF6893"/>
<stop offset="0.112" stop-color="#FF6D9D"/>
<stop offset="0.2704" stop-color="#FF8483"/>
<stop offset="0.4555" stop-color="#FF8BA1"/>
<stop offset="0.4915" stop-color="#FF8DA8"/>
<stop offset="0.6582" stop-color="#FFAFA0"/>
<stop offset="0.8834" stop-color="#FFD796"/>
<stop offset="1" stop-color="#FFE792"/>
</linearGradient>
<clipPath id="clip0_8220_28736">
<rect width="515" height="450" fill="white" transform="translate(0.877808 0.940796)"/>
</clipPath>
<clipPath id="clip1_8220_28736">
<rect width="325.5" height="433.358" fill="white" transform="translate(95.6278 17.5828)"/>
</clipPath>
</defs>
</svg>
